HIERARCHY
ROOT Hips
{
	OFFSET 0.000000 97.167313 0.000000
	CHANNELS 6 Xposition Yposition Zposition Xrotation Yrotation Zrotation
	JOINT Spine
	{
		OFFSET 0.000000 13.784798 0.064400
		CHANNELS 3 Xrotation Yrotation Zrotation
		JOINT Spine1
		{
			OFFSET 0.000000 12.037903 0.404700
			CHANNELS 3 Xrotation Yrotation Zrotation
			JOINT Spine2
			{
				OFFSET 0.000000 17.795601 0.420200
				CHANNELS 3 Xrotation Yrotation Zrotation
				JOINT Neck
				{
					OFFSET 0.000000 39.131302 11.954600
					CHANNELS 3 Xrotation Yrotation Zrotation
					JOINT Head
					{
						OFFSET 0.000000 14.456192 15.627699
						CHANNELS 3 Xrotation Yrotation Zrotation
						JOINT HeadTop_End
						{
							OFFSET 0.000000 15.703506 7.603401
							CHANNELS 3 Xrotation Yrotation Zrotation
							End Site
							{
								OFFSET 0.000000 17.447403 0.000000
							}
						}
					}
				}
				JOINT LeftShoulder
				{
					OFFSET 17.399500 24.608795 1.168800
					CHANNELS 3 Xrotation Yrotation Zrotation
					JOINT LeftArm
					{
						OFFSET 18.980635 5.765305 1.818600
						CHANNELS 3 Xrotation Yrotation Zrotation
						JOINT LeftForeArm
						{
							OFFSET 49.290169 0.000000 0.000000
							CHANNELS 3 Xrotation Yrotation Zrotation
							JOINT LeftHand
							{
								OFFSET 31.562012 0.000000 0.000000
								CHANNELS 3 Xrotation Yrotation Zrotation
								JOINT LeftHandThumb1
								{
									OFFSET 6.133995 -4.388519 7.076070
									CHANNELS 3 Xrotation Yrotation Zrotation
									JOINT LeftHandThumb2
									{
										OFFSET 6.037666 -3.485840 3.485847
										CHANNELS 3 Xrotation Yrotation Zrotation
										JOINT LeftHandThumb3
										{
											OFFSET 6.496506 -3.750763 3.750761
											CHANNELS 3 Xrotation Yrotation Zrotation
											JOINT LeftHandThumb4
											{
												OFFSET 5.616882 -3.242905 3.242910
												CHANNELS 3 Xrotation Yrotation Zrotation
												End Site
												{
													OFFSET -1.254608 7.132141 0.375429
												}
											}
										}
									}
								}
								JOINT LeftHandPinky1
								{
									OFFSET 18.920792 -0.453171 -11.426712
									CHANNELS 3 Xrotation Yrotation Zrotation
									JOINT LeftHandPinky2
									{
										OFFSET 4.919586 0.000000 0.000000
										CHANNELS 3 Xrotation Yrotation Zrotation
										JOINT LeftHandPinky3
										{
											OFFSET 5.233047 0.000000 0.000000
											CHANNELS 3 Xrotation Yrotation Zrotation
											JOINT LeftHandPinky4
											{
												OFFSET 5.571716 0.000000 0.000000
												CHANNELS 3 Xrotation Yrotation Zrotation
												End Site
												{
													OFFSET -3.459808 4.342407 -0.466164
												}
											}
										}
									}
								}
								JOINT LeftHandRing1
								{
									OFFSET 22.726120 -0.094986 -6.500475
									CHANNELS 3 Xrotation Yrotation Zrotation
									JOINT LeftHandRing2
									{
										OFFSET 6.408615 0.000000 0.000000
										CHANNELS 3 Xrotation Yrotation Zrotation
										JOINT LeftHandRing3
										{
											OFFSET 6.150223 0.000000 0.000000
											CHANNELS 3 Xrotation Yrotation Zrotation
											JOINT LeftHandRing4
											{
												OFFSET 6.145386 0.000000 0.000000
												CHANNELS 3 Xrotation Yrotation Zrotation
												End Site
												{
													OFFSET -3.671402 4.923981 -0.202372
												}
											}
										}
									}
								}
								JOINT LeftHandMiddle1
								{
									OFFSET 23.373947 0.000000 0.000001
									CHANNELS 3 Xrotation Yrotation Zrotation
									JOINT LeftHandMiddle2
									{
										OFFSET 6.996567 0.000000 0.000000
										CHANNELS 3 Xrotation Yrotation Zrotation
										JOINT LeftHandMiddle3
										{
											OFFSET 7.015945 0.000000 0.000000
											CHANNELS 3 Xrotation Yrotation Zrotation
											JOINT LeftHandMiddle4
											{
												OFFSET 7.721573 0.000000 0.000000
												CHANNELS 3 Xrotation Yrotation Zrotation
												End Site
												{
													OFFSET -4.651108 6.158463 0.251582
												}
											}
										}
									}
								}
								JOINT LeftHandIndex1
								{
									OFFSET 21.310577 -0.490082 6.209344
									CHANNELS 3 Xrotation Yrotation Zrotation
									JOINT LeftHandIndex2
									{
										OFFSET 7.536453 0.000000 0.000000
										CHANNELS 3 Xrotation Yrotation Zrotation
										JOINT LeftHandIndex3
										{
											OFFSET 7.512344 0.000000 0.000000
											CHANNELS 3 Xrotation Yrotation Zrotation
											JOINT LeftHandIndex4
											{
												OFFSET 10.212402 0.000000 0.000001
												CHANNELS 3 Xrotation Yrotation Zrotation
												End Site
												{
													OFFSET -5.180801 8.690506 1.388433
												}
											}
										}
									}
								}
							}
						}
					}
				}
				JOINT RightShoulder
				{
					OFFSET -17.399500 24.608795 1.168800
					CHANNELS 3 Xrotation Yrotation Zrotation
					JOINT RightArm
					{
						OFFSET -18.980635 5.765305 1.818600
						CHANNELS 3 Xrotation Yrotation Zrotation
						JOINT RightForeArm
						{
							OFFSET -49.290169 0.000000 0.000000
							CHANNELS 3 Xrotation Yrotation Zrotation
							JOINT RightHand
							{
								OFFSET -31.562012 0.000000 0.000000
								CHANNELS 3 Xrotation Yrotation Zrotation
								JOINT RightHandThumb1
								{
									OFFSET -6.133995 -4.388519 7.076070
									CHANNELS 3 Xrotation Yrotation Zrotation
									JOINT RightHandThumb2
									{
										OFFSET -6.037666 -3.485840 3.485847
										CHANNELS 3 Xrotation Yrotation Zrotation
										JOINT RightHandThumb3
										{
											OFFSET -6.496506 -3.750763 3.750761
											CHANNELS 3 Xrotation Yrotation Zrotation
											JOINT RightHandThumb4
											{
												OFFSET -5.616882 -3.242905 3.242910
												CHANNELS 3 Xrotation Yrotation Zrotation
												End Site
												{
													OFFSET 1.254608 7.132141 0.375429
												}
											}
										}
									}
								}
								JOINT RightHandIndex1
								{
									OFFSET -21.310577 -0.490082 6.209344
									CHANNELS 3 Xrotation Yrotation Zrotation
									JOINT RightHandIndex2
									{
										OFFSET -7.536453 0.000000 0.000000
										CHANNELS 3 Xrotation Yrotation Zrotation
										JOINT RightHandIndex3
										{
											OFFSET -7.512344 0.000000 0.000000
											CHANNELS 3 Xrotation Yrotation Zrotation
											JOINT RightHandIndex4
											{
												OFFSET -10.212402 0.000000 0.000001
												CHANNELS 3 Xrotation Yrotation Zrotation
												End Site
												{
													OFFSET 5.180801 8.690506 1.388433
												}
											}
										}
									}
								}
								JOINT RightHandMiddle1
								{
									OFFSET -23.373947 0.000000 0.000001
									CHANNELS 3 Xrotation Yrotation Zrotation
									JOINT RightHandMiddle2
									{
										OFFSET -6.996567 0.000000 0.000000
										CHANNELS 3 Xrotation Yrotation Zrotation
										JOINT RightHandMiddle3
										{
											OFFSET -7.015945 0.000000 0.000000
											CHANNELS 3 Xrotation Yrotation Zrotation
											JOINT RightHandMiddle4
											{
												OFFSET -7.721573 0.000000 0.000000
												CHANNELS 3 Xrotation Yrotation Zrotation
												End Site
												{
													OFFSET 4.651108 6.158463 0.251582
												}
											}
										}
									}
								}
								JOINT RightHandRing1
								{
									OFFSET -22.726120 -0.094986 -6.500475
									CHANNELS 3 Xrotation Yrotation Zrotation
									JOINT RightHandRing2
									{
										OFFSET -6.408615 0.000000 0.000000
										CHANNELS 3 Xrotation Yrotation Zrotation
										JOINT RightHandRing3
										{
											OFFSET -6.150223 0.000000 0.000000
											CHANNELS 3 Xrotation Yrotation Zrotation
											JOINT RightHandRing4
											{
												OFFSET -6.145386 0.000000 0.000000
												CHANNELS 3 Xrotation Yrotation Zrotation
												End Site
												{
													OFFSET 3.671402 4.923981 -0.202372
												}
											}
										}
									}
								}
								JOINT RightHandPinky1
								{
									OFFSET -18.920792 -0.453171 -11.426712
									CHANNELS 3 Xrotation Yrotation Zrotation
									JOINT RightHandPinky2
									{
										OFFSET -4.919586 0.000000 0.000000
										CHANNELS 3 Xrotation Yrotation Zrotation
										JOINT RightHandPinky3
										{
											OFFSET -5.233047 0.000000 0.000000
											CHANNELS 3 Xrotation Yrotation Zrotation
											JOINT RightHandPinky4
											{
												OFFSET -5.571716 0.000000 0.000000
												CHANNELS 3 Xrotation Yrotation Zrotation
												End Site
												{
													OFFSET 3.459808 4.342407 -0.466164
												}
											}
										}
									}
								}
							}
						}
					}
				}
			}
		}
	}
	JOINT LeftUpLeg
	{
		OFFSET 19.899099 -7.885101 -3.429500
		CHANNELS 3 Xrotation Yrotation Zrotation
		JOINT LeftLeg
		{
			OFFSET 1.745560 -36.997807 10.304700
			CHANNELS 3 Xrotation Yrotation Zrotation
			JOINT LeftFoot
			{
				OFFSET -1.745558 -29.803308 -13.615400
				CHANNELS 3 Xrotation Yrotation Zrotation
				JOINT LeftToeBase
				{
					OFFSET 1.181900 -18.539904 15.226099
					CHANNELS 3 Xrotation Yrotation Zrotation
					JOINT LeftToe_End
					{
						OFFSET -0.863701 1.402801 16.534700
						CHANNELS 3 Xrotation Yrotation Zrotation
						End Site
						{
							OFFSET 0.000000 16.616566 0.000000
						}
					}
				}
			}
		}
	}
	JOINT RightUpLeg
	{
		OFFSET -19.899099 -7.885101 -3.429500
		CHANNELS 3 Xrotation Yrotation Zrotation
		JOINT RightLeg
		{
			OFFSET -1.745560 -36.997807 10.304700
			CHANNELS 3 Xrotation Yrotation Zrotation
			JOINT RightFoot
			{
				OFFSET 1.745558 -29.803308 -13.615400
				CHANNELS 3 Xrotation Yrotation Zrotation
				JOINT RightToeBase
				{
					OFFSET -1.181900 -18.539904 15.226099
					CHANNELS 3 Xrotation Yrotation Zrotation
					JOINT RightToe_End
					{
						OFFSET 0.863701 1.402801 16.534700
						CHANNELS 3 Xrotation Yrotation Zrotation
						End Site
						{
							OFFSET 0.000000 16.616566 0.000000
						}
					}
				}
			}
		}
	}
}
MOTION
Frames: 4
Frame Time: 0.033333
0.285469 75.168228 10.236637 -11.933959 -51.705242 -8.520939 10.982645 7.466748 -3.498490 6.860195 0.707276 -1.480514 6.869860 0.659689 -1.433442 -1.203581 15.829146 2.747801 2.969135 26.490069 -6.016760 0.000001 0.000000 -0.000000 1.961086 2.017743 -12.547776 -48.413791 4.810415 -38.867970 0.000003 -119.857075 -0.000026 -18.571301 -7.644145 -14.668359 -6.141208 -11.690800 -6.761677 9.914164 42.595488 3.409814 -0.422813 8.108089 27.509104 0.000001 0.000001 0.000000 -3.762431 9.063684 -45.253821 5.342523 5.828992 -85.005290 8.716844 5.103345 -119.369194 0.000002 0.000002 -0.000002 0.469725 4.966825 -39.799427 8.181033 5.368606 -113.502950 3.200509 5.218126 -63.023002 0.000001 -0.000001 0.000003 -0.461475 3.841591 -39.722679 6.450760 5.820352 -95.892857 2.182888 4.561565 -51.127729 0.000002 -0.000000 0.000006 0.255313 3.378207 -45.814331 5.654094 5.847770 -88.067435 2.162146 4.544808 -50.866379 -0.000001 0.000001 0.000001 3.094716 13.334965 -7.172689 -50.145907 30.235707 81.264320 0.000082 103.662327 -0.000061 -11.790033 16.814427 9.192067 -7.341110 13.749653 7.412316 9.855831 -44.489079 -3.903210 -0.115799 -14.513068 -28.973864 -0.000001 -0.000002 -0.000000 -0.124375 -2.384772 45.108878 4.500596 -4.654544 88.071143 1.723220 -3.618366 50.920122 -0.000001 -0.000005 -0.000002 -0.761624 -2.932906 39.031058 5.133891 -4.632755 95.881629 1.739742 -3.631700 51.181387 -0.000000 -0.000001 -0.000007 0.154750 -4.068820 39.122675 6.509736 -4.273584 113.462843 2.549580 -4.153923 63.067371 -0.000000 -0.000000 -0.000003 -4.198884 -8.025502 44.637800 4.252909 -4.639619 85.014818 6.935976 -4.062644 119.322285 0.000000 -0.000000 0.000002 -44.014559 -0.584009 28.817196 58.081081 -12.377913 2.773676 2.609766 -12.474584 -10.733987 -1.135999 0.043063 -2.462852 0.000001 -0.000001 -0.000001 -7.157011 -15.971158 -40.600311 38.944154 4.626457 -3.694980 -20.324227 -7.965333 31.995680 0.736878 -0.014167 1.427892 -0.000000 -0.000000 0.000000 
0.104006 74.685440 8.279909 -10.321777 -48.647148 -6.496572 11.006668 7.424358 -3.370522 5.940595 0.757114 -1.304335 5.948648 0.714475 -1.262165 -0.762242 15.025351 2.740556 3.159981 23.839379 -5.258691 -0.000001 -0.000000 -0.000000 2.077886 2.441250 -13.338115 -50.592420 3.411465 -42.065499 -0.000045 -118.527319 -0.000079 -16.444763 -8.289025 -13.132816 -6.141207 -11.690792 -6.761677 9.914169 42.595484 3.409808 -0.422808 8.108087 27.509113 0.000001 -0.000001 -0.000002 -3.762428 9.063692 -45.253821 5.342524 5.828994 -85.005290 8.716849 5.103345 -119.369194 -0.000000 0.000000 -0.000002 0.469727 4.966830 -39.799430 8.181038 5.368608 -113.502950 3.200509 5.218131 -63.022996 0.000000 0.000001 0.000002 -0.461473 3.841599 -39.722676 6.450755 5.820353 -95.892857 2.182888 4.561565 -51.127733 -0.000001 -0.000001 0.000004 0.255316 3.378213 -45.814334 5.654098 5.847774 -88.067441 2.162148 4.544804 -50.866372 -0.000000 0.000003 0.000002 3.057762 13.049875 -7.362544 -49.675939 29.274874 82.328635 0.000034 104.906972 -0.000022 -10.871043 17.506238 9.043275 -7.341110 13.749652 7.412313 9.855833 -44.489079 -3.903206 -0.115799 -14.513061 -28.973864 -0.000000 -0.000002 0.000003 -0.124375 -2.384771 45.108878 4.500601 -4.654542 88.071137 1.723220 -3.618365 50.920122 -0.000000 -0.000003 -0.000002 -0.761623 -2.932905 39.031058 5.133892 -4.632759 95.881629 1.739745 -3.631696 51.181377 0.000001 0.000003 -0.000004 0.154752 -4.068818 39.122675 6.509742 -4.273579 113.462843 2.549579 -4.153922 63.067371 0.000001 -0.000001 -0.000005 -4.198885 -8.025501 44.637796 4.252914 -4.639620 85.014825 6.935973 -4.062647 119.322271 -0.000001 -0.000004 0.000002 -44.643650 -1.119143 27.581803 59.997741 -12.619622 2.163003 0.330845 -12.226255 -14.531270 0.459286 -0.000032 0.000006 -0.000000 -0.000000 -0.000000 -6.194283 -16.007957 -39.813770 42.148069 2.871759 -3.009320 -23.225899 -9.650959 31.269033 0.592088 -0.009211 1.152776 -0.000000 -0.000000 0.000000 
-0.020010 74.200302 6.551579 -9.036447 -45.848768 -5.023971 10.915786 7.351483 -2.835130 5.048143 0.795903 -1.144521 5.054919 0.758537 -1.107249 -0.274581 14.316083 2.697865 3.399691 21.468980 -4.558033 -0.000002 0.000000 0.000000 2.090308 3.388857 -13.276628 -52.664051 2.753173 -45.546983 -0.000037 -117.015880 -0.000053 -12.620313 -9.485388 -11.491563 -6.141210 -11.690789 -6.761669 9.914170 42.595491 3.409806 -0.422814 8.108092 27.509109 -0.000001 0.000005 -0.000001 -3.762435 9.063691 -45.253825 5.342527 5.828993 -85.005283 8.716848 5.103343 -119.369194 -0.000000 0.000001 -0.000000 0.469726 4.966830 -39.799427 8.181034 5.368609 -113.502950 3.200508 5.218128 -63.023002 -0.000001 0.000002 0.000003 -0.461472 3.841593 -39.722679 6.450757 5.820350 -95.892864 2.182888 4.561566 -51.127729 -0.000000 0.000000 0.000004 0.255310 3.378212 -45.814337 5.654098 5.847770 -88.067435 2.162145 4.544805 -50.866372 0.000001 0.000001 0.000001 3.053958 13.035528 -7.292157 -49.035096 28.122875 82.774639 -0.000033 105.957312 0.000060 -9.718637 17.902723 8.987042 -7.341104 13.749658 7.412316 9.855835 -44.489076 -3.903214 -0.115799 -14.513066 -28.973867 -0.000003 -0.000002 0.000001 -0.124374 -2.384772 45.108881 4.500598 -4.654540 88.071137 1.723219 -3.618365 50.920129 -0.000001 0.000000 -0.000001 -0.761621 -2.932905 39.031061 5.133894 -4.632756 95.881635 1.739746 -3.631699 51.181381 0.000001 0.000000 0.000003 0.154754 -4.068818 39.122675 6.509736 -4.273584 113.462843 2.549579 -4.153923 63.067371 0.000001 -0.000003 -0.000004 -4.198879 -8.025500 44.637796 4.252912 -4.639613 85.014818 6.935977 -4.062647 119.322285 0.000002 -0.000002 0.000002 -45.388397 -1.853202 26.157722 62.244525 -12.357780 1.774568 -0.374385 -12.878887 -17.156042 0.355659 -0.011574 0.889068 -0.000000 0.000000 -0.000000 -5.263182 -16.015696 -38.088970 44.972008 2.862885 -2.675580 -25.848807 -13.117177 29.632229 0.450306 -0.005380 0.881748 0.000000 0.000000 -0.000000 
-0.133905 73.480942 5.306362 -7.887491 -44.090131 -4.003337 10.622682 7.377707 -2.216592 4.152793 0.848744 -0.936665 4.157774 0.816598 -0.904113 0.076673 13.792915 2.829475 3.962544 19.857377 -3.691793 0.000000 0.000000 0.000000 1.932286 4.758161 -12.504638 -52.927194 2.201352 -49.435475 -0.000007 -115.082800 -0.000039 -9.332826 -10.306958 -10.240311 -6.141209 -11.690793 -6.761672 9.914168 42.595488 3.409808 -0.422814 8.108088 27.509113 -0.000001 0.000004 -0.000001 -3.762433 9.063691 -45.253821 5.342518 5.828994 -85.005290 8.716846 5.103349 -119.369194 0.000002 -0.000001 -0.000002 0.469726 4.966829 -39.799434 8.181033 5.368606 -113.502950 3.200507 5.218125 -63.023002 -0.000002 0.000002 0.000003 -0.461470 3.841593 -39.722679 6.450757 5.820351 -95.892857 2.182889 4.561562 -51.127726 0.000001 -0.000001 0.000008 0.255313 3.378212 -45.814334 5.654097 5.847771 -88.067428 2.162143 4.544804 -50.866372 -0.000001 0.000001 0.000001 3.080369 13.351829 -6.577372 -48.060510 27.364555 82.688019 -0.000013 106.787337 0.000049 -8.805426 18.033388 8.704363 -7.341104 13.749660 7.412317 9.855829 -44.489079 -3.903217 -0.115795 -14.513064 -28.973867 0.000000 0.000002 -0.000002 -0.124373 -2.384770 45.108881 4.500588 -4.654546 88.071137 1.723222 -3.618367 50.920122 -0.000000 -0.000001 0.000001 -0.761621 -2.932905 39.031055 5.133890 -4.632757 95.881622 1.739741 -3.631699 51.181381 -0.000002 -0.000002 -0.000009 0.154752 -4.068818 39.122671 6.509733 -4.273585 113.462843 2.549581 -4.153924 63.067378 -0.000000 -0.000003 -0.000000 -4.198878 -8.025499 44.637807 4.252910 -4.639616 85.014818 6.935972 -4.062646 119.322271 -0.000000 -0.000002 0.000005 -46.119466 -2.293001 25.492067 63.877801 -11.669043 1.259891 2.126052 -14.826001 -18.791828 -7.384747 -0.658222 4.442598 -0.000000 0.000001 -0.000000 -5.155598 -15.576923 -36.784489 47.650955 2.949501 -2.419802 -28.141559 -15.566206 28.360527 0.315048 -0.002679 0.621150 -0.000000 0.000000 -0.000000 
